<svg id="Layer_1" data-name="Layer 1" xmlns="http://www.w3.org/2000/svg" viewBox="0 0 512 512"><title>chicken</title><g id="chicken"><g id="label"><path d="M512,256c0,141.39-114.61,256-256,256S0,397.39,0,256,114.63,0,256,0,512,114.61,512,256Z" fill="#ffce54"/></g><g id="fill"><path d="M229.36,177.83a99.08,99.08,0,1,0,99.08,99.08,99.1,99.1,0,0,0-99.08-99.08Z" fill="#fff" fill-rule="evenodd"/><path d="M284.94,96.71a79,79,0,1,0,79,79,79,79,0,0,0-79-79Z" fill="#fff" fill-rule="evenodd"/><path d="M356.44,209.23c7.73.2,25.1-8,25.27-11.2.22-3.9-13.28-17.34-17.88-18.79-10-1.71-17.73,29.72-7.39,30Z" fill="#fff" fill-rule="evenodd"/></g><g id="outline"><path d="M312.17,154.47a11.44,11.44,0,1,0,11.45,11.44,11.45,11.45,0,0,0-11.45-11.44Z" fill="#3d3d3d" fill-rule="evenodd"/><path d="M229.36,381.45a104.56,104.56,0,0,1-24.5-206.21,5.48,5.48,0,1,1,2.56,10.65,93.55,93.55,0,1,0,110.53,60.69A5.48,5.48,0,1,1,328.31,243a104.62,104.62,0,0,1-98.95,138.42Z" fill="#3d3d3d"/><path d="M284.94,260.12A84.4,84.4,0,1,1,327,248.92,84.54,84.54,0,0,1,284.94,260.12Zm0-157.93a73.5,73.5,0,1,0,73.48,73.49A73.57,73.57,0,0,0,284.94,102.19Z" fill="#3d3d3d"/><path d="M356.58,214.71h-.28l.28-10.95c4.92.23,14.6-4.13,18.74-6.82-2.87-4.05-10.47-11.44-13.18-12.49L365.48,174c5.37,1.7,22.14,16.48,21.7,24.32C386.73,206.65,364.55,214.71,356.58,214.71Z" fill="#3d3d3d"/><path d="M223.05,410.46a5.47,5.47,0,0,1-5.47-5.47V379.24a5.47,5.47,0,0,1,10.95,0V405A5.47,5.47,0,0,1,223.05,410.46Z" fill="#3d3d3d"/><path d="M199,420.76a5.48,5.48,0,0,1-2.35-10.42l20.95-10a5.48,5.48,0,1,1,4.7,9.89l-20.95,10A5.47,5.47,0,0,1,199,420.76Z" fill="#3d3d3d"/><path d="M245,420.76a5.47,5.47,0,0,1-2.35-.53l-20.95-10a5.48,5.48,0,1,1,4.7-9.89l20.95,10A5.48,5.48,0,0,1,245,420.76Z" fill="#3d3d3d"/><path d="M280.07,394a5.47,5.47,0,0,1-5.47-5.47V362.76a5.47,5.47,0,0,1,10.95,0v25.75A5.47,5.47,0,0,1,280.07,394Z" fill="#3d3d3d"/><path d="M256,404.29a5.48,5.48,0,0,1-2.35-10.42l21-10a5.48,5.48,0,0,1,4.7,9.89l-21,10A5.47,5.47,0,0,1,256,404.29Z" fill="#3d3d3d"/><path d="M302,404.29a5.46,5.46,0,0,1-2.35-.53l-20.95-10a5.48,5.48,0,0,1,4.7-9.89l20.95,10A5.48,5.48,0,0,1,302,404.29Z" fill="#3d3d3d"/></g></g></svg>